<svg width="26" height="24" viewBox="0 0 26 24" fill="none" xmlns="http://www.w3.org/2000/svg">
<path d="M24.6242 8.45108L17.1035 7.35612L13.7415 0.528203C13.6497 0.341259 13.4986 0.189923 13.312 0.0979342C12.844 -0.133521 12.2753 0.0593584 12.0413 0.528203L8.67933 7.35612L1.15863 8.45108C0.95128 8.48076 0.761708 8.57868 0.616566 8.72705C0.441098 8.90772 0.344407 9.15079 0.34774 9.40284C0.351072 9.6549 0.454155 9.89531 0.634338 10.0713L6.07566 15.3858L4.79013 22.8903C4.75998 23.0649 4.77926 23.2444 4.84579 23.4086C4.91231 23.5727 5.02342 23.7149 5.16651 23.819C5.3096 23.9231 5.47895 23.985 5.65535 23.9976C5.83175 24.0102 6.00814 23.973 6.16453 23.8903L12.8914 20.3473L19.6183 23.8903C19.8019 23.9882 20.0152 24.0209 20.2196 23.9853C20.735 23.8962 21.0815 23.4066 20.9927 22.8903L19.7071 15.3858L25.1484 10.0713C25.2966 9.92587 25.3943 9.73596 25.4239 9.52824C25.5039 9.00895 25.1425 8.52824 24.6242 8.45108Z" fill="#F0C419"/>
</svg>
