<svg width="309" height="213" viewBox="0 0 309 213" fill="none" xmlns="http://www.w3.org/2000/svg">
<path d="M62.8666 38.9333H31.7502V171.146H97.6573M259.538 171.146H97.6573M97.6573 138.491V171.146" stroke="white" stroke-opacity="0.5" stroke-width="2"/>
<path d="M32.7441 6.27881H229.47M295.178 168.757V138.093M263.319 138.093H295.178M295.178 138.093V6.27881H229.47M229.47 38.1373V6.27881" stroke="white" stroke-opacity="0.5" stroke-width="2"/>
<g filter="url(#filter0_f_1219_8610)">
<path d="M82.1239 22.2078H83.6239V20.7078H82.1239V22.2078ZM82.1239 56.0574V57.5574H83.6239V56.0574H82.1239ZM47.0797 56.0574V54.5574H45.5797V56.0574H47.0797ZM47.0797 89.1105H45.5797V90.6105H47.0797V89.1105ZM146.239 89.1105V90.6105H147.739V89.1105H146.239ZM146.239 52.0751V50.5751H144.739V52.0751H146.239ZM180.487 52.0751H181.987V50.5751H180.487V52.0751ZM180.487 121.765H178.987V123.265H180.487V121.765ZM212.743 121.765V123.265H214.243V121.765H212.743ZM212.743 86.3229V84.8229H211.243V86.3229H212.743ZM279.646 86.3229H281.146V84.8229H279.646V86.3229ZM279.646 121.765V123.265H281.146V121.765H279.646ZM244.602 121.765V120.265H243.102V121.765H244.602ZM244.602 154.022H243.102V155.522H244.602V154.022ZM279.646 154.022H281.146V152.522H279.646V154.022ZM279.646 192.279L288.306 177.279H270.986L279.646 192.279ZM20 23.7078H82.1239V20.7078H20V23.7078ZM80.6239 22.2078V56.0574H83.6239V22.2078H80.6239ZM82.1239 54.5574H47.0797V57.5574H82.1239V54.5574ZM45.5797 56.0574V89.1105H48.5797V56.0574H45.5797ZM47.0797 90.6105H146.239V87.6105H47.0797V90.6105ZM147.739 89.1105V52.0751H144.739V89.1105H147.739ZM146.239 53.5751H180.487V50.5751H146.239V53.5751ZM178.987 52.0751V121.765H181.987V52.0751H178.987ZM180.487 123.265H212.743V120.265H180.487V123.265ZM214.243 121.765V86.3229H211.243V121.765H214.243ZM212.743 87.8229H279.646V84.8229H212.743V87.8229ZM278.146 86.3229V121.765H281.146V86.3229H278.146ZM279.646 120.265H244.602V123.265H279.646V120.265ZM243.102 121.765V154.022H246.102V121.765H243.102ZM244.602 155.522H279.646V152.522H244.602V155.522ZM278.146 154.022V178.779H281.146V154.022H278.146Z" fill="#2E2688"/>
</g>
<path d="M82.1239 22.2078H83.6239V20.7078H82.1239V22.2078ZM82.1239 56.0574V57.5574H83.6239V56.0574H82.1239ZM47.0797 56.0574V54.5574H45.5797V56.0574H47.0797ZM47.0797 89.1105H45.5797V90.6105H47.0797V89.1105ZM146.239 89.1105V90.6105H147.739V89.1105H146.239ZM146.239 52.0751V50.5751H144.739V52.0751H146.239ZM180.487 52.0751H181.987V50.5751H180.487V52.0751ZM180.487 121.765H178.987V123.265H180.487V121.765ZM212.743 121.765V123.265H214.243V121.765H212.743ZM212.743 86.3229V84.8229H211.243V86.3229H212.743ZM279.646 86.3229H281.146V84.8229H279.646V86.3229ZM279.646 121.765V123.265H281.146V121.765H279.646ZM244.602 121.765V120.265H243.102V121.765H244.602ZM244.602 154.022H243.102V155.522H244.602V154.022ZM279.646 154.022H281.146V152.522H279.646V154.022ZM279.646 192.279L288.306 177.279H270.986L279.646 192.279ZM20 23.7078H21.9414V20.7078H20V23.7078ZM25.8241 23.7078H29.7069V20.7078H25.8241V23.7078ZM33.5896 23.7078H37.4724V20.7078H33.5896V23.7078ZM41.3551 23.7078H45.2378V20.7078H41.3551V23.7078ZM49.1206 23.7078H53.0033V20.7078H49.1206V23.7078ZM56.8861 23.7078H60.7688V20.7078H56.8861V23.7078ZM64.6516 23.7078H68.5343V20.7078H64.6516V23.7078ZM72.4171 23.7078H76.2998V20.7078H72.4171V23.7078ZM80.1825 23.7078H82.1239V20.7078H80.1825V23.7078ZM80.6239 22.2078V24.3234H83.6239V22.2078H80.6239ZM80.6239 28.5546V32.7858H83.6239V28.5546H80.6239ZM80.6239 37.017V41.2482H83.6239V37.017H80.6239ZM80.6239 45.4794V49.7106H83.6239V45.4794H80.6239ZM80.6239 53.9418V56.0574H83.6239V53.9418H80.6239ZM82.1239 54.5574H79.9337V57.5574H82.1239V54.5574ZM75.5531 54.5574H71.1726V57.5574H75.5531V54.5574ZM66.7921 54.5574H62.4115V57.5574H66.7921V54.5574ZM58.031 54.5574H53.6505V57.5574H58.031V54.5574ZM49.2699 54.5574H47.0797V57.5574H49.2699V54.5574ZM45.5797 56.0574V58.1232H48.5797V56.0574H45.5797ZM45.5797 62.2548V66.3865H48.5797V62.2548H45.5797ZM45.5797 70.5181V74.6498H48.5797V70.5181H45.5797ZM45.5797 78.7814V82.9131H48.5797V78.7814H45.5797ZM45.5797 87.0447V89.1105H48.5797V87.0447H45.5797ZM47.0797 90.6105H49.1455V87.6105H47.0797V90.6105ZM53.2771 90.6105H57.4088V87.6105H53.2771V90.6105ZM61.5404 90.6105H65.672V87.6105H61.5404V90.6105ZM69.8037 90.6105H73.9353V87.6105H69.8037V90.6105ZM78.067 90.6105H82.1986V87.6105H78.067V90.6105ZM86.3302 90.6105H90.4619V87.6105H86.3302V90.6105ZM94.5935 90.6105H98.7251V87.6105H94.5935V90.6105ZM102.857 90.6105H106.988V87.6105H102.857V90.6105ZM111.12 90.6105H115.252V87.6105H111.12V90.6105ZM119.383 90.6105H123.515V87.6105H119.383V90.6105ZM127.647 90.6105H131.778V87.6105H127.647V90.6105ZM135.91 90.6105H140.042V87.6105H135.91V90.6105ZM144.173 90.6105H146.239V87.6105H144.173V90.6105ZM147.739 89.1105V87.2587H144.739V89.1105H147.739ZM147.739 83.5552V79.8517H144.739V83.5552H147.739ZM147.739 76.1481V72.4446H144.739V76.1481H147.739ZM147.739 68.741V65.0375H144.739V68.741H147.739ZM147.739 61.3339V57.6304H144.739V61.3339H147.739ZM147.739 53.9268V52.0751H144.739V53.9268H147.739ZM146.239 53.5751H148.379V50.5751H146.239V53.5751ZM152.66 53.5751H156.941V50.5751H152.66V53.5751ZM161.222 53.5751H165.503V50.5751H161.222V53.5751ZM169.784 53.5751H174.065V50.5751H169.784V53.5751ZM178.346 53.5751H180.487V50.5751H178.346V53.5751ZM178.987 52.0751V54.0109H181.987V52.0751H178.987ZM178.987 57.8826V61.7543H181.987V57.8826H178.987ZM178.987 65.626V69.4977H181.987V65.626H178.987ZM178.987 73.3693V77.241H181.987V73.3693H178.987ZM178.987 81.1127V84.9844H181.987V81.1127H178.987ZM178.987 88.8561V92.7278H181.987V88.8561H178.987ZM178.987 96.5995V100.471H181.987V96.5995H178.987ZM178.987 104.343V108.215H181.987V104.343H178.987ZM178.987 112.086V115.958H181.987V112.086H178.987ZM178.987 119.83V121.765H181.987V119.83H178.987ZM180.487 123.265H182.503V120.265H180.487V123.265ZM186.535 123.265H190.567V120.265H186.535V123.265ZM194.599 123.265H198.631V120.265H194.599V123.265ZM202.663 123.265H206.695V120.265H202.663V123.265ZM210.727 123.265H212.743V120.265H210.727V123.265ZM214.243 121.765V119.55H211.243V121.765H214.243ZM214.243 115.12V110.69H211.243V115.12H214.243ZM214.243 106.259V101.829H211.243V106.259H214.243ZM214.243 97.3987V92.9684H211.243V97.3987H214.243ZM214.243 88.5381V86.3229H211.243V88.5381H214.243ZM212.743 87.8229H214.834V84.8229H212.743V87.8229ZM219.016 87.8229H223.197V84.8229H219.016V87.8229ZM227.378 87.8229H231.56V84.8229H227.378V87.8229ZM235.741 87.8229H239.923V84.8229H235.741V87.8229ZM244.104 87.8229H248.285V84.8229H244.104V87.8229ZM252.467 87.8229H256.648V84.8229H252.467V87.8229ZM260.83 87.8229H265.011V84.8229H260.83V87.8229ZM269.193 87.8229H273.374V84.8229H269.193V87.8229ZM277.555 87.8229H279.646V84.8229H277.555V87.8229ZM278.146 86.3229V88.5381H281.146V86.3229H278.146ZM278.146 92.9684V97.3987H281.146V92.9684H278.146ZM278.146 101.829V106.259H281.146V101.829H278.146ZM278.146 110.69V115.12H281.146V110.69H278.146ZM278.146 119.55V121.765H281.146V119.55H278.146ZM279.646 120.265H277.456V123.265H279.646V120.265ZM273.075 120.265H268.695V123.265H273.075V120.265ZM264.314 120.265H259.934V123.265H264.314V120.265ZM255.553 120.265H251.173V123.265H255.553V120.265ZM246.792 120.265H244.602V123.265H246.792V120.265ZM243.102 121.765V123.781H246.102V121.765H243.102ZM243.102 127.814V131.846H246.102V127.814H243.102ZM243.102 135.878V139.91H246.102V135.878H243.102ZM243.102 143.942V147.974H246.102V143.942H243.102ZM243.102 152.006V154.022H246.102V152.006H243.102ZM244.602 155.522H246.792V152.522H244.602V155.522ZM251.173 155.522H255.553V152.522H251.173V155.522ZM259.934 155.522H264.314V152.522H259.934V155.522ZM268.695 155.522H273.075V152.522H268.695V155.522ZM277.456 155.522H279.646V152.522H277.456V155.522ZM278.146 154.022V155.935H281.146V154.022H278.146ZM278.146 159.761V163.586H281.146V159.761H278.146ZM278.146 167.412V171.238H281.146V167.412H278.146ZM278.146 175.063V178.889H281.146V175.063H278.146ZM278.146 182.715V186.54H281.146V182.715H278.146Z" fill="#2E2688"/>
<path d="M20 22.2078H82.1239V56.0574H47.0797V89.1105H146.239V52.0751H180.487V121.765H212.743V86.3229H279.646V121.765H244.602V154.022H279.646V176.332" stroke="white" stroke-width="0.5" stroke-dasharray="4 4"/>
<path d="M97.26 6.67676V69.199H65.7998H130.313" stroke="white" stroke-opacity="0.5" stroke-width="2"/>
<path d="M131.506 38.9333H196.816V70.9909M196.816 103.048V70.9909M196.816 70.9909H262.524M262.524 70.9909V38.9333M262.524 70.9909H294.781" stroke="white" stroke-opacity="0.5" stroke-width="2"/>
<path d="M63.4082 136.899V106.235H129.514M129.514 106.235V136.899M129.514 106.235H163.364V73.9785V139.687H230.267V106.235M230.267 106.235H259.337M230.267 106.235V170.35" stroke="white" stroke-opacity="0.5" stroke-width="2"/>
<defs>
<filter id="filter0_f_1219_8610" x="0" y="0.707764" width="308.306" height="211.571" filterUnits="userSpaceOnUse" color-interpolation-filters="sRGB">
<feFlood flood-opacity="0" result="BackgroundImageFix"/>
<feBlend mode="normal" in="SourceGraphic" in2="BackgroundImageFix" result="shape"/>
<feGaussianBlur stdDeviation="10" result="effect1_foregroundBlur_1219_8610"/>
</filter>
</defs>
</svg>