<svg width="121" height="50" viewBox="0 0 121 50" fill="none" xmlns="http://www.w3.org/2000/svg">
<path fill-rule="evenodd" clip-rule="evenodd" d="M3 16.3707C3 13.1676 4.98403 11.0006 8.6351 11.0006C10.1631 10.9812 11.6596 11.4353 12.9192 12.3006L11.2541 15.2457C10.7055 14.7687 9.99673 14.5168 9.27011 14.5407C7.89508 14.5407 7.22307 15.4077 7.22307 16.8437V18.3477H12.1182V21.9008H7.22307V34.667H3V16.3707ZM79.5883 11.3136C80.101 11.3132 80.6022 11.4648 81.0287 11.7493C81.4552 12.0338 81.7877 12.4384 81.9843 12.9119C82.1808 13.3853 82.2326 13.9065 82.1329 14.4094C82.0333 14.9122 81.7868 15.3743 81.4246 15.7371C81.0623 16.0999 80.6007 16.3471 80.0979 16.4475C79.5952 16.5479 79.074 16.497 78.6002 16.3011C78.1264 16.1053 77.7214 15.7734 77.4362 15.3474C77.1511 14.9213 76.9986 14.4203 76.9983 13.9076V13.9056C76.9967 13.5667 77.0619 13.2307 77.1902 12.9169C77.3186 12.6032 77.5075 12.3178 77.7461 12.0771C77.9848 11.8363 78.2686 11.645 78.5813 11.514C78.8939 11.383 79.2293 11.3149 79.5683 11.3136H79.5883ZM100.639 23.0908C99.5836 19.6967 97.4366 18.0337 93.5355 18.0337V18.0437C88.6084 18.0437 85.6334 21.2428 85.6334 26.5219C85.6334 31.8019 88.6084 35 93.5355 35C97.4386 35 99.5836 33.336 100.638 29.9429L96.7376 28.9829C96.1926 30.6079 95.2006 31.4399 93.6655 31.4399C91.2365 31.4399 90.0535 29.8089 90.0535 26.5129C90.0535 23.2168 91.2655 21.5858 93.6655 21.5858C95.2006 21.5858 96.1926 22.4168 96.7366 24.0498L100.638 23.0898L100.639 23.0908ZM77.4413 18.3537H81.6663V34.672H77.4413V18.3537ZM68.8371 21.9058H74.4992V18.3537H64.612V34.672H68.8371V21.9058ZM53.0338 31.4399C54.9219 31.4399 55.9139 30.4799 55.9139 27.9849V18.3547H60.136V27.9519C60.136 32.688 57.7359 34.991 53.0338 34.991C48.3308 34.991 45.8977 32.688 45.8977 27.9509V18.3547H50.1208V27.9859C50.1208 30.4809 51.1448 31.4409 53.0338 31.4409V31.4399ZM33.1365 12.2756H37.3596V18.3537H42.5747V21.9058H37.3596V29.1289C37.3596 30.8889 38.2876 31.4319 39.5026 31.4319C40.4626 31.4319 41.0066 31.0819 41.6787 30.4729L43.3117 33.487C42.0068 34.4798 40.4071 35.0072 38.7676 34.985C35.1205 34.985 33.1325 32.841 33.1325 29.6389L33.1365 12.2756ZM24.7564 18.3537V27.9849H24.7554C24.7554 30.4799 23.7624 31.4399 21.8753 31.4399C19.9883 31.4399 18.9643 30.4799 18.9643 27.9849V18.3547H14.7402V27.9519C14.7402 32.688 17.1712 34.991 21.8743 34.991C26.5774 34.991 28.9774 32.688 28.9774 27.9509V18.3547L24.7564 18.3537ZM111.004 18.0297C115.482 18.0297 118.586 20.4288 118.586 25.6448V27.5649H107.548C107.644 30.2199 109.179 31.5639 111.131 31.5639C112.922 31.5639 114.299 30.6679 115.032 29.1319L118.425 30.8649C116.986 33.395 114.779 34.985 111.227 34.985C105.98 34.985 103.261 31.6619 103.261 26.4099C103.261 21.1958 106.333 18.0297 111.004 18.0297ZM111.099 21.3938C108.859 21.3938 107.803 23.0568 107.611 24.7538H114.458C114.458 23.0898 113.691 21.3938 111.099 21.3938Z" fill="white"/>
</svg>
