<svg width="76" height="50" viewBox="0 0 76 50" fill="none" xmlns="http://www.w3.org/2000/svg">
<g clip-path="url(#clip0_1219_8779)">
<path d="M6.98027 30.212C6.9616 30.324 6.95227 30.4733 6.95227 30.66C6.95227 31.0333 7.05493 31.304 7.26027 31.472C7.48427 31.6213 7.84827 31.696 8.35227 31.696H10.2003L9.61227 35H7.12027C4.32027 35 2.92027 33.8333 2.92027 31.5C2.92027 31.052 2.9576 30.6133 3.03227 30.184L4.34827 22.708H2.50027L3.06027 19.488H4.93627L5.60827 15.652H9.55627L8.88427 19.488H12.3283L11.7683 22.708H8.29627L6.98027 30.212ZM29.7917 19.488L27.0477 35H23.1277L23.4637 33.04C22.8664 33.712 22.1291 34.244 21.2517 34.636C20.3744 35.0093 19.4504 35.196 18.4797 35.196C16.8744 35.196 15.6051 34.7667 14.6717 33.908C13.7384 33.0307 13.2717 31.7893 13.2717 30.184C13.2717 29.5867 13.3184 29.0547 13.4117 28.588L15.0077 19.488H18.9277L17.4157 28.028C17.3597 28.364 17.3317 28.6907 17.3317 29.008C17.3317 29.9227 17.5837 30.632 18.0877 31.136C18.5917 31.6213 19.3011 31.864 20.2157 31.864C21.2797 31.864 22.1851 31.5373 22.9317 30.884C23.6784 30.212 24.1544 29.26 24.3597 28.028L25.8717 19.488H29.7917ZM36.3475 30.212C36.3288 30.324 36.3195 30.4733 36.3195 30.66C36.3195 31.0333 36.4221 31.304 36.6275 31.472C36.8515 31.6213 37.2155 31.696 37.7195 31.696H39.5675L38.9795 35H36.4875C33.6875 35 32.2875 33.8333 32.2875 31.5C32.2875 31.052 32.3248 30.6133 32.3995 30.184L33.7155 22.708H31.8675L32.4275 19.488H34.3035L34.9755 15.652H38.9235L38.2515 19.488H41.6955L41.1355 22.708H37.6635L36.3475 30.212ZM50.5629 27.244L56.0509 35H50.9829L46.8949 28.42L45.7189 35H41.7709L45.4389 14.28H49.3869L47.3149 26.04L53.6429 19.488H58.7669L50.5629 27.244ZM67.6985 19.236C69.6772 19.236 71.2452 19.7867 72.4025 20.888C73.5598 21.9707 74.1385 23.436 74.1385 25.284C74.1385 25.8813 74.0918 26.4133 73.9985 26.88C73.8865 27.44 73.7652 27.9253 73.6345 28.336H62.2945C62.2758 28.4667 62.2665 28.6533 62.2665 28.896C62.2665 29.8667 62.5465 30.632 63.1065 31.192C63.6852 31.7333 64.4412 32.004 65.3745 32.004C66.1585 32.004 66.8305 31.836 67.3905 31.5C67.9692 31.1453 68.4358 30.688 68.7905 30.128H73.0185C72.3278 31.6213 71.2545 32.8533 69.7985 33.824C68.3612 34.776 66.7278 35.252 64.8985 35.252C62.9198 35.252 61.3332 34.692 60.1385 33.572C58.9438 32.452 58.3465 30.9307 58.3465 29.008C58.3465 28.448 58.4025 27.86 58.5145 27.244C58.7945 25.6387 59.3638 24.2293 60.2225 23.016C61.0998 21.8027 62.1825 20.8693 63.4705 20.216C64.7585 19.5627 66.1678 19.236 67.6985 19.236ZM70.1065 25.956C70.1438 25.6573 70.1625 25.4427 70.1625 25.312C70.1625 24.416 69.8732 23.716 69.2945 23.212C68.7158 22.708 67.9598 22.456 67.0265 22.456C66.0372 22.456 65.1505 22.7733 64.3665 23.408C63.5825 24.024 63.0318 24.8733 62.7145 25.956H70.1065Z" fill="white"/>
</g>
<defs>
<clipPath id="clip0_1219_8779">
<rect width="76" height="50" fill="white"/>
</clipPath>
</defs>
</svg>
