<svg width="308" height="50" viewBox="0 0 308 50" fill="none" xmlns="http://www.w3.org/2000/svg">
<g clip-path="url(#clip0_1219_8777)">
<path d="M7.00981 18.12C6.48181 18.12 6.05781 17.968 5.73781 17.664C5.41781 17.36 5.25781 16.976 5.25781 16.512C5.25781 15.872 5.49781 15.328 5.97781 14.88C6.47381 14.416 7.04981 14.184 7.70581 14.184C8.21781 14.184 8.63381 14.336 8.95381 14.64C9.27381 14.944 9.43381 15.328 9.43381 15.792C9.43381 16.432 9.19381 16.984 8.71381 17.448C8.23381 17.896 7.66581 18.12 7.00981 18.12ZM8.40181 19.704L6.04981 33H2.66581L5.01781 19.704H8.40181ZM19.0895 19.512C20.4655 19.512 21.5455 19.888 22.3295 20.64C23.1295 21.376 23.5295 22.432 23.5295 23.808C23.5295 24.32 23.4895 24.784 23.4095 25.2L22.0175 33H18.6815L19.9775 25.656C20.0255 25.368 20.0495 25.088 20.0495 24.816C20.0495 24.016 19.8335 23.408 19.4015 22.992C18.9855 22.576 18.3855 22.368 17.6015 22.368C16.7055 22.368 15.9375 22.64 15.2975 23.184C14.6735 23.712 14.2575 24.48 14.0495 25.488L12.7295 33H9.3455L11.6975 19.704H15.0815L14.7935 21.336C15.3375 20.776 15.9855 20.336 16.7375 20.016C17.4895 19.68 18.2735 19.512 19.0895 19.512ZM29.8687 28.896C29.8527 28.992 29.8447 29.12 29.8447 29.28C29.8447 29.6 29.9327 29.832 30.1087 29.976C30.3007 30.104 30.6127 30.168 31.0447 30.168H32.6287L32.1247 33H29.9887C27.5887 33 26.3887 32 26.3887 30C26.3887 29.616 26.4207 29.24 26.4847 28.872L27.6127 22.464H26.0287L26.5087 19.704H28.1167L28.6927 16.416H32.0767L31.5007 19.704H34.4527L33.9727 22.464H30.9967L29.8687 28.896ZM42.7254 19.488C44.4214 19.488 45.7654 19.96 46.7574 20.904C47.7494 21.832 48.2454 23.088 48.2454 24.672C48.2454 25.184 48.2054 25.64 48.1254 26.04C48.0294 26.52 47.9254 26.936 47.8134 27.288H38.0934C38.0774 27.4 38.0694 27.56 38.0694 27.768C38.0694 28.6 38.3094 29.256 38.7894 29.736C39.2854 30.2 39.9334 30.432 40.7334 30.432C41.4054 30.432 41.9814 30.288 42.4614 30C42.9574 29.696 43.3574 29.304 43.6614 28.824H47.2854C46.6934 30.104 45.7734 31.16 44.5254 31.992C43.2934 32.808 41.8934 33.216 40.3254 33.216C38.6294 33.216 37.2694 32.736 36.2454 31.776C35.2214 30.816 34.7094 29.512 34.7094 27.864C34.7094 27.384 34.7574 26.88 34.8534 26.352C35.0934 24.976 35.5814 23.768 36.3174 22.728C37.0694 21.688 37.9974 20.888 39.1014 20.328C40.2054 19.768 41.4134 19.488 42.7254 19.488ZM44.7894 25.248C44.8214 24.992 44.8374 24.808 44.8374 24.696C44.8374 23.928 44.5894 23.328 44.0934 22.896C43.5974 22.464 42.9494 22.248 42.1494 22.248C41.3014 22.248 40.5414 22.52 39.8694 23.064C39.1974 23.592 38.7254 24.32 38.4534 25.248H44.7894ZM54.6579 22.056C55.2339 21.256 55.9059 20.632 56.6739 20.184C57.4419 19.736 58.2739 19.512 59.1699 19.512L58.5459 23.04H57.6579C56.6659 23.04 55.8659 23.256 55.2579 23.688C54.6659 24.12 54.2339 24.856 53.9619 25.896L52.7139 33H49.3299L51.6819 19.704H55.0659L54.6579 22.056ZM59.369 26.304C59.609 24.96 60.081 23.768 60.785 22.728C61.505 21.688 62.377 20.888 63.401 20.328C64.441 19.768 65.529 19.488 66.665 19.488C67.529 19.488 68.321 19.68 69.041 20.064C69.761 20.432 70.297 20.928 70.649 21.552L71.777 15.24H75.161L72.017 33H68.633L68.993 31.032C68.465 31.688 67.785 32.216 66.953 32.616C66.137 33.016 65.233 33.216 64.241 33.216C63.265 33.216 62.393 33 61.625 32.568C60.873 32.12 60.281 31.496 59.849 30.696C59.433 29.88 59.225 28.936 59.225 27.864C59.225 27.368 59.273 26.848 59.369 26.304ZM69.809 26.352C69.873 25.936 69.905 25.632 69.905 25.44C69.905 24.496 69.625 23.76 69.065 23.232C68.521 22.704 67.833 22.44 67.001 22.44C66.377 22.44 65.769 22.592 65.177 22.896C64.601 23.2 64.097 23.648 63.665 24.24C63.233 24.816 62.945 25.504 62.801 26.304C62.753 26.608 62.729 26.896 62.729 27.168C62.729 28.128 63.001 28.888 63.545 29.448C64.089 29.992 64.777 30.264 65.609 30.264C66.233 30.264 66.841 30.112 67.433 29.808C68.025 29.488 68.529 29.032 68.945 28.44C69.377 27.848 69.665 27.152 69.809 26.352ZM79.6426 18.12C79.1146 18.12 78.6906 17.968 78.3706 17.664C78.0506 17.36 77.8906 16.976 77.8906 16.512C77.8906 15.872 78.1306 15.328 78.6106 14.88C79.1066 14.416 79.6826 14.184 80.3386 14.184C80.8506 14.184 81.2666 14.336 81.5866 14.64C81.9066 14.944 82.0666 15.328 82.0666 15.792C82.0666 16.432 81.8266 16.984 81.3466 17.448C80.8666 17.896 80.2986 18.12 79.6426 18.12ZM81.0346 19.704L78.6826 33H75.2986L77.6506 19.704H81.0346ZM87.1863 33.216C86.2103 33.216 85.3223 33.056 84.5223 32.736C83.7383 32.4 83.1143 31.944 82.6503 31.368C82.2023 30.776 81.9783 30.104 81.9783 29.352C81.9783 29.24 81.9943 29.056 82.0263 28.8H85.2903C85.2423 29.36 85.4103 29.816 85.7943 30.168C86.1783 30.504 86.7223 30.672 87.4263 30.672C88.0663 30.672 88.5943 30.56 89.0103 30.336C89.4423 30.096 89.6583 29.752 89.6583 29.304C89.6583 28.904 89.4583 28.584 89.0583 28.344C88.6743 28.104 88.0583 27.832 87.2103 27.528C86.3623 27.224 85.6583 26.928 85.0983 26.64C84.5383 26.352 84.0583 25.952 83.6583 25.44C83.2583 24.928 83.0583 24.28 83.0583 23.496C83.0583 22.712 83.2823 22.016 83.7303 21.408C84.1943 20.8 84.8343 20.328 85.6503 19.992C86.4663 19.656 87.4023 19.488 88.4583 19.488C89.4663 19.488 90.3543 19.656 91.1223 19.992C91.8903 20.328 92.4823 20.8 92.8983 21.408C93.3303 22 93.5463 22.68 93.5463 23.448C93.5463 23.64 93.5383 23.784 93.5223 23.88H90.4023C90.4503 23.32 90.2903 22.872 89.9223 22.536C89.5543 22.2 89.0183 22.032 88.3143 22.032C87.7383 22.032 87.2663 22.16 86.8983 22.416C86.5303 22.656 86.3463 22.984 86.3463 23.4C86.3463 23.816 86.5543 24.16 86.9703 24.432C87.3863 24.688 88.0263 24.976 88.8903 25.296C89.7543 25.632 90.4423 25.944 90.9543 26.232C91.4823 26.504 91.9383 26.888 92.3223 27.384C92.7063 27.864 92.8983 28.472 92.8983 29.208C92.8983 30.024 92.6503 30.736 92.1543 31.344C91.6583 31.952 90.9783 32.416 90.1143 32.736C89.2503 33.056 88.2743 33.216 87.1863 33.216ZM95.3924 26.352C95.6324 24.976 96.1204 23.776 96.8564 22.752C97.5924 21.712 98.5044 20.912 99.5924 20.352C100.696 19.776 101.888 19.488 103.168 19.488C104.816 19.488 106.104 19.896 107.032 20.712C107.976 21.528 108.504 22.688 108.616 24.192H104.992C104.896 23.616 104.648 23.168 104.248 22.848C103.848 22.512 103.312 22.344 102.64 22.344C101.68 22.344 100.856 22.696 100.168 23.4C99.4964 24.088 99.0484 25.072 98.8244 26.352C98.7444 26.8 98.7044 27.184 98.7044 27.504C98.7044 28.416 98.9284 29.12 99.3764 29.616C99.8244 30.096 100.448 30.336 101.248 30.336C102.592 30.336 103.584 29.728 104.224 28.512H107.848C107.224 29.952 106.288 31.096 105.04 31.944C103.808 32.792 102.384 33.216 100.768 33.216C99.0884 33.216 97.7444 32.744 96.7364 31.8C95.7444 30.84 95.2484 29.544 95.2484 27.912C95.2484 27.416 95.2964 26.896 95.3924 26.352ZM113.838 18.12C113.31 18.12 112.886 17.968 112.566 17.664C112.246 17.36 112.086 16.976 112.086 16.512C112.086 15.872 112.326 15.328 112.806 14.88C113.302 14.416 113.878 14.184 114.534 14.184C115.046 14.184 115.462 14.336 115.782 14.64C116.102 14.944 116.262 15.328 116.262 15.792C116.262 16.432 116.022 16.984 115.542 17.448C115.062 17.896 114.494 18.12 113.838 18.12ZM115.23 19.704L112.878 33H109.494L111.846 19.704H115.23ZM121.574 21.624C122.118 21.016 122.798 20.512 123.614 20.112C124.446 19.696 125.35 19.488 126.326 19.488C127.318 19.488 128.19 19.704 128.942 20.136C129.71 20.552 130.302 21.16 130.718 21.96C131.134 22.76 131.342 23.696 131.342 24.768C131.342 25.264 131.294 25.776 131.198 26.304C130.958 27.664 130.478 28.872 129.758 29.928C129.038 30.968 128.166 31.776 127.142 32.352C126.118 32.928 125.046 33.216 123.926 33.216C122.95 33.216 122.118 33.016 121.43 32.616C120.758 32.216 120.246 31.712 119.894 31.104L118.454 39.336H115.07L118.526 19.704H121.91L121.574 21.624ZM127.766 26.304C127.814 25.984 127.838 25.696 127.838 25.44C127.838 24.496 127.566 23.76 127.022 23.232C126.478 22.704 125.782 22.44 124.934 22.44C124.326 22.44 123.726 22.6 123.134 22.92C122.542 23.224 122.03 23.672 121.598 24.264C121.166 24.856 120.878 25.552 120.734 26.352C120.67 26.768 120.638 27.072 120.638 27.264C120.638 28.208 120.91 28.944 121.454 29.472C122.014 30 122.71 30.264 123.542 30.264C124.166 30.264 124.774 30.104 125.366 29.784C125.958 29.464 126.47 29.008 126.902 28.416C127.334 27.824 127.622 27.12 127.766 26.304ZM138.967 15.24L135.823 33H132.439L135.583 15.24H138.967ZM143.463 18.12C142.935 18.12 142.511 17.968 142.191 17.664C141.871 17.36 141.711 16.976 141.711 16.512C141.711 15.872 141.951 15.328 142.431 14.88C142.927 14.416 143.503 14.184 144.159 14.184C144.671 14.184 145.087 14.336 145.407 14.64C145.727 14.944 145.887 15.328 145.887 15.792C145.887 16.432 145.647 16.984 145.167 17.448C144.687 17.896 144.119 18.12 143.463 18.12ZM144.855 19.704L142.503 33H139.119L141.471 19.704H144.855ZM155.543 19.512C156.919 19.512 157.999 19.888 158.783 20.64C159.583 21.376 159.983 22.432 159.983 23.808C159.983 24.32 159.943 24.784 159.863 25.2L158.471 33H155.135L156.431 25.656C156.479 25.368 156.503 25.088 156.503 24.816C156.503 24.016 156.287 23.408 155.855 22.992C155.439 22.576 154.839 22.368 154.055 22.368C153.159 22.368 152.391 22.64 151.751 23.184C151.127 23.712 150.711 24.48 150.503 25.488L149.183 33H145.799L148.151 19.704H151.535L151.247 21.336C151.791 20.776 152.439 20.336 153.191 20.016C153.943 19.68 154.727 19.512 155.543 19.512ZM162.002 26.304C162.242 24.96 162.714 23.768 163.418 22.728C164.138 21.688 165.01 20.888 166.034 20.328C167.058 19.768 168.138 19.488 169.274 19.488C170.266 19.488 171.098 19.688 171.77 20.088C172.458 20.488 172.962 20.992 173.282 21.6L173.618 19.704H177.002L174.65 33H171.266L171.626 31.056C171.098 31.68 170.41 32.2 169.562 32.616C168.73 33.016 167.818 33.216 166.826 33.216C165.85 33.216 164.986 33 164.234 32.568C163.482 32.12 162.898 31.496 162.482 30.696C162.066 29.88 161.858 28.936 161.858 27.864C161.858 27.368 161.906 26.848 162.002 26.304ZM172.442 26.352C172.506 25.936 172.538 25.632 172.538 25.44C172.538 24.496 172.258 23.76 171.698 23.232C171.154 22.704 170.466 22.44 169.634 22.44C169.01 22.44 168.402 22.592 167.81 22.896C167.234 23.2 166.73 23.648 166.298 24.24C165.866 24.816 165.578 25.504 165.434 26.304C165.386 26.608 165.362 26.896 165.362 27.168C165.362 28.128 165.634 28.888 166.178 29.448C166.722 29.992 167.41 30.264 168.242 30.264C168.866 30.264 169.474 30.112 170.066 29.808C170.658 29.488 171.162 29.032 171.578 28.44C172.01 27.848 172.298 27.152 172.442 26.352ZM183.259 22.056C183.835 21.256 184.507 20.632 185.275 20.184C186.043 19.736 186.875 19.512 187.771 19.512L187.147 23.04H186.259C185.267 23.04 184.467 23.256 183.859 23.688C183.267 24.12 182.835 24.856 182.563 25.896L181.315 33H177.931L180.283 19.704H183.667L183.259 22.056ZM192.219 19.704L193.995 28.992L199.155 19.704H202.731L191.043 39.288H187.467L191.499 32.664L188.451 19.704H192.219ZM214.19 23.016L213.686 25.848H203.486L203.99 23.016H214.19ZM216.494 26.352C216.734 24.976 217.222 23.776 217.958 22.752C218.694 21.712 219.606 20.912 220.694 20.352C221.798 19.776 222.99 19.488 224.27 19.488C225.918 19.488 227.206 19.896 228.134 20.712C229.078 21.528 229.606 22.688 229.718 24.192H226.094C225.998 23.616 225.75 23.168 225.35 22.848C224.95 22.512 224.414 22.344 223.742 22.344C222.782 22.344 221.958 22.696 221.27 23.4C220.598 24.088 220.15 25.072 219.926 26.352C219.846 26.8 219.806 27.184 219.806 27.504C219.806 28.416 220.03 29.12 220.478 29.616C220.926 30.096 221.55 30.336 222.35 30.336C223.694 30.336 224.686 29.728 225.326 28.512H228.95C228.326 29.952 227.39 31.096 226.142 31.944C224.91 32.792 223.486 33.216 221.87 33.216C220.19 33.216 218.846 32.744 217.838 31.8C216.846 30.84 216.35 29.544 216.35 27.912C216.35 27.416 216.398 26.896 216.494 26.352ZM236.548 33.216C235.412 33.216 234.404 32.984 233.524 32.52C232.66 32.056 231.988 31.4 231.508 30.552C231.028 29.704 230.788 28.728 230.788 27.624C230.788 26.12 231.14 24.752 231.844 23.52C232.564 22.272 233.54 21.288 234.772 20.568C236.02 19.848 237.404 19.488 238.924 19.488C240.06 19.488 241.068 19.728 241.948 20.208C242.844 20.672 243.532 21.328 244.012 22.176C244.508 23.024 244.756 24 244.756 25.104C244.756 26.624 244.396 28 243.676 29.232C242.956 30.464 241.964 31.44 240.7 32.16C239.452 32.864 238.068 33.216 236.548 33.216ZM237.004 30.336C237.804 30.336 238.532 30.104 239.188 29.64C239.844 29.176 240.356 28.56 240.724 27.792C241.092 27.024 241.276 26.216 241.276 25.368C241.276 24.408 241.004 23.672 240.46 23.16C239.932 22.632 239.26 22.368 238.444 22.368C237.628 22.368 236.9 22.6 236.26 23.064C235.636 23.528 235.148 24.152 234.796 24.936C234.444 25.704 234.268 26.52 234.268 27.384C234.268 28.328 234.516 29.056 235.012 29.568C235.524 30.08 236.188 30.336 237.004 30.336ZM252.428 15.24L249.284 33H245.9L249.044 15.24H252.428ZM259.108 15.24L255.964 33H252.58L255.724 15.24H259.108ZM267.468 19.488C269.164 19.488 270.508 19.96 271.5 20.904C272.492 21.832 272.988 23.088 272.988 24.672C272.988 25.184 272.948 25.64 272.868 26.04C272.772 26.52 272.668 26.936 272.556 27.288H262.836C262.82 27.4 262.812 27.56 262.812 27.768C262.812 28.6 263.052 29.256 263.532 29.736C264.028 30.2 264.676 30.432 265.476 30.432C266.148 30.432 266.724 30.288 267.204 30C267.7 29.696 268.1 29.304 268.404 28.824H272.028C271.436 30.104 270.516 31.16 269.268 31.992C268.036 32.808 266.636 33.216 265.068 33.216C263.372 33.216 262.012 32.736 260.988 31.776C259.964 30.816 259.452 29.512 259.452 27.864C259.452 27.384 259.5 26.88 259.596 26.352C259.836 24.976 260.324 23.768 261.06 22.728C261.812 21.688 262.74 20.888 263.844 20.328C264.948 19.768 266.156 19.488 267.468 19.488ZM269.532 25.248C269.564 24.992 269.58 24.808 269.58 24.696C269.58 23.928 269.332 23.328 268.836 22.896C268.34 22.464 267.692 22.248 266.892 22.248C266.044 22.248 265.284 22.52 264.612 23.064C263.94 23.592 263.468 24.32 263.196 25.248H269.532ZM281.68 19.488C282.672 19.488 283.512 19.688 284.2 20.088C284.904 20.472 285.4 20.976 285.688 21.6L286.024 19.704H289.408L287.056 33.096C286.832 34.328 286.384 35.424 285.712 36.384C285.04 37.36 284.16 38.128 283.072 38.688C281.984 39.264 280.736 39.552 279.328 39.552C277.456 39.552 275.992 39.112 274.936 38.232C273.896 37.352 273.424 36.152 273.52 34.632H276.856C276.92 35.24 277.208 35.72 277.72 36.072C278.248 36.44 278.928 36.624 279.76 36.624C280.752 36.624 281.592 36.328 282.28 35.736C282.984 35.16 283.448 34.28 283.672 33.096L284.032 31.032C283.488 31.656 282.8 32.176 281.968 32.592C281.152 33.008 280.256 33.216 279.28 33.216C278.304 33.216 277.432 33 276.664 32.568C275.912 32.12 275.32 31.496 274.888 30.696C274.472 29.88 274.264 28.936 274.264 27.864C274.264 27.368 274.312 26.848 274.408 26.304C274.648 24.96 275.12 23.768 275.824 22.728C276.544 21.688 277.416 20.888 278.44 20.328C279.464 19.768 280.544 19.488 281.68 19.488ZM284.848 26.352C284.912 25.936 284.944 25.632 284.944 25.44C284.944 24.496 284.664 23.76 284.104 23.232C283.56 22.704 282.872 22.44 282.04 22.44C281.416 22.44 280.808 22.592 280.216 22.896C279.64 23.2 279.136 23.648 278.704 24.24C278.272 24.816 277.984 25.504 277.84 26.304C277.792 26.608 277.768 26.896 277.768 27.168C277.768 28.128 278.04 28.888 278.584 29.448C279.128 29.992 279.816 30.264 280.648 30.264C281.272 30.264 281.88 30.112 282.472 29.808C283.064 29.488 283.568 29.032 283.984 28.44C284.416 27.848 284.704 27.152 284.848 26.352ZM298.546 19.488C300.242 19.488 301.586 19.96 302.578 20.904C303.57 21.832 304.066 23.088 304.066 24.672C304.066 25.184 304.026 25.64 303.946 26.04C303.85 26.52 303.746 26.936 303.634 27.288H293.914C293.898 27.4 293.89 27.56 293.89 27.768C293.89 28.6 294.13 29.256 294.61 29.736C295.106 30.2 295.754 30.432 296.554 30.432C297.226 30.432 297.802 30.288 298.282 30C298.778 29.696 299.178 29.304 299.482 28.824H303.106C302.514 30.104 301.594 31.16 300.346 31.992C299.114 32.808 297.714 33.216 296.146 33.216C294.45 33.216 293.09 32.736 292.066 31.776C291.042 30.816 290.53 29.512 290.53 27.864C290.53 27.384 290.578 26.88 290.674 26.352C290.914 24.976 291.402 23.768 292.138 22.728C292.89 21.688 293.818 20.888 294.922 20.328C296.026 19.768 297.234 19.488 298.546 19.488ZM300.61 25.248C300.642 24.992 300.658 24.808 300.658 24.696C300.658 23.928 300.41 23.328 299.914 22.896C299.418 22.464 298.77 22.248 297.97 22.248C297.122 22.248 296.362 22.52 295.69 23.064C295.018 23.592 294.546 24.32 294.274 25.248H300.61Z" fill="white"/>
</g>
<defs>
<clipPath id="clip0_1219_8777">
<rect width="308" height="50" fill="white"/>
</clipPath>
</defs>
</svg>
