<svg width="216" height="50" viewBox="0 0 216 50" fill="none" xmlns="http://www.w3.org/2000/svg">
<path d="M6.22239 15.8H15.1924C16.6484 15.8 17.7924 16.1467 18.6244 16.84C19.4737 17.516 19.8984 18.426 19.8984 19.57C19.8984 19.8647 19.8724 20.168 19.8204 20.48L19.3784 22.976C19.1184 24.5187 18.4771 25.7233 17.4544 26.59C16.4491 27.4393 15.1491 27.864 13.5544 27.864H7.13239L6.06639 34H3.02439L6.22239 15.8ZM13.6064 25.212C14.3344 25.212 14.9411 25.0127 15.4264 24.614C15.9117 24.198 16.2237 23.6173 16.3624 22.872L16.8044 20.558C16.8391 20.35 16.8564 20.194 16.8564 20.09C16.8564 19.5873 16.6917 19.1887 16.3624 18.894C16.0504 18.5993 15.6084 18.452 15.0364 18.452H8.79639L7.60039 25.212H13.6064ZM29.4709 29.502H22.2429L19.7729 34H16.4969L26.7669 15.8H28.1449C29.0982 15.8 29.6702 16.2593 29.8609 17.178L33.3969 34H30.3549L29.4709 29.502ZM23.5429 26.954H29.0809L27.6509 19.57H27.6249L23.5429 26.954ZM38.6208 15.8H47.6688C49.0902 15.8 50.2168 16.1293 51.0488 16.788C51.8808 17.4467 52.2968 18.3307 52.2968 19.44C52.2968 19.6827 52.2708 19.9513 52.2188 20.246L51.9068 22.092C51.7335 23.028 51.3262 23.834 50.6848 24.51C50.0435 25.186 49.1855 25.68 48.1108 25.992V26.044C48.6135 26.3733 48.9862 26.798 49.2288 27.318C49.4715 27.838 49.6448 28.4967 49.7488 29.294L50.3728 34H47.2268L46.6288 29.502C46.5248 28.722 46.2735 28.124 45.8748 27.708C45.4935 27.292 44.9908 27.084 44.3668 27.084H39.6608L38.4648 34H35.4228L38.6208 15.8ZM45.8228 24.458C46.6202 24.458 47.2962 24.2413 47.8508 23.808C48.4055 23.3747 48.7435 22.8113 48.8648 22.118L49.1768 20.324C49.1942 20.2373 49.2028 20.1247 49.2028 19.986C49.2028 19.518 49.0468 19.1453 48.7348 18.868C48.4402 18.5907 48.0328 18.452 47.5128 18.452H41.1948L40.1288 24.458H45.8228ZM59.7127 18.426H53.9407L54.4087 15.8H68.9947L68.5267 18.426H62.7547L60.0247 34H56.9827L59.7127 18.426ZM71.4824 15.8H74.5244L71.3264 34H68.2844L71.4824 15.8ZM81.3998 34.208C79.6318 34.208 78.2278 33.7313 77.1878 32.778C76.1651 31.8073 75.6538 30.4987 75.6538 28.852C75.6538 28.4533 75.6971 27.968 75.7838 27.396L76.6678 22.404C77.0318 20.2547 77.8638 18.582 79.1638 17.386C80.4638 16.19 82.0931 15.592 84.0518 15.592H86.7818C88.5324 15.592 89.9104 16.0513 90.9158 16.97C91.9211 17.8713 92.4238 19.0933 92.4238 20.636C92.4238 21 92.3804 21.442 92.2938 21.962H89.3038C89.3558 21.65 89.3818 21.3553 89.3818 21.078C89.3818 20.2113 89.1391 19.5267 88.6538 19.024C88.1684 18.5213 87.5098 18.27 86.6778 18.27H83.9478C82.8384 18.27 81.9024 18.6513 81.1398 19.414C80.3944 20.1593 79.9091 21.1907 79.6838 22.508L78.8258 27.292C78.7564 27.6387 78.7218 28.0027 78.7218 28.384C78.7218 29.3547 78.9644 30.126 79.4498 30.698C79.9524 31.2527 80.6371 31.53 81.5038 31.53H84.2858C85.3258 31.53 86.2098 31.166 86.9378 30.438C87.6831 29.6927 88.1684 28.6873 88.3938 27.422H91.3838C91.0024 29.5367 90.1704 31.2007 88.8878 32.414C87.6051 33.61 86.0364 34.208 84.1818 34.208H81.3998ZM103.738 29.502H96.5104L94.0404 34H90.7644L101.034 15.8H102.412C103.366 15.8 103.938 16.2593 104.128 17.178L107.664 34H104.622L103.738 29.502ZM97.8104 26.954H103.348L101.918 19.57H101.892L97.8104 26.954ZM111.774 34C111.185 34 110.717 33.8527 110.37 33.558C110.023 33.246 109.85 32.8213 109.85 32.284C109.85 32.18 109.867 32.024 109.902 31.816L112.736 15.8H115.778L113.022 31.348H122.902L122.46 34H111.774ZM137.394 34.208C135.765 34.208 134.474 33.792 133.52 32.96C132.584 32.128 132.116 31.0013 132.116 29.58C132.116 29.1467 132.151 28.748 132.22 28.384H135.21C135.176 28.5573 135.158 28.7913 135.158 29.086C135.158 29.8487 135.366 30.4467 135.782 30.88C136.198 31.3133 136.779 31.53 137.524 31.53H140.41C141.277 31.53 141.996 31.348 142.568 30.984C143.14 30.62 143.487 30.126 143.608 29.502L143.816 28.358C143.834 28.2887 143.842 28.202 143.842 28.098C143.842 27.6993 143.686 27.3613 143.374 27.084C143.062 26.8067 142.62 26.616 142.048 26.512L137.446 25.732C136.181 25.5067 135.219 25.0993 134.56 24.51C133.902 23.9033 133.572 23.1407 133.572 22.222C133.572 21.91 133.59 21.6673 133.624 21.494L133.884 20.064C134.144 18.66 134.812 17.568 135.886 16.788C136.978 15.9907 138.365 15.592 140.046 15.592H142.958C144.484 15.592 145.688 15.982 146.572 16.762C147.474 17.5247 147.924 18.5647 147.924 19.882C147.924 20.2633 147.89 20.6187 147.82 20.948H144.856C144.891 20.6707 144.908 20.4627 144.908 20.324C144.908 19.7 144.726 19.206 144.362 18.842C143.998 18.4607 143.496 18.27 142.854 18.27H139.942C139.128 18.27 138.443 18.452 137.888 18.816C137.334 19.1627 137.004 19.6393 136.9 20.246L136.718 21.182C136.701 21.2513 136.692 21.3553 136.692 21.494C136.692 21.8927 136.84 22.2307 137.134 22.508C137.429 22.768 137.854 22.95 138.408 23.054L142.984 23.886C144.267 24.1113 145.246 24.5187 145.922 25.108C146.616 25.6973 146.962 26.4427 146.962 27.344C146.962 27.4653 146.945 27.682 146.91 27.994L146.624 29.684C146.364 31.1227 145.688 32.2407 144.596 33.038C143.504 33.818 142.092 34.208 140.358 34.208H137.394ZM151.863 15.8H160.833C162.289 15.8 163.433 16.1467 164.265 16.84C165.114 17.516 165.539 18.426 165.539 19.57C165.539 19.8647 165.513 20.168 165.461 20.48L165.019 22.976C164.759 24.5187 164.118 25.7233 163.095 26.59C162.09 27.4393 160.79 27.864 159.195 27.864H152.773L151.707 34H148.665L151.863 15.8ZM159.247 25.212C159.975 25.212 160.582 25.0127 161.067 24.614C161.552 24.198 161.864 23.6173 162.003 22.872L162.445 20.558C162.48 20.35 162.497 20.194 162.497 20.09C162.497 19.5873 162.332 19.1887 162.003 18.894C161.691 18.5993 161.249 18.452 160.677 18.452H154.437L153.241 25.212H159.247ZM175.111 29.502H167.883L165.413 34H162.137L172.407 15.8H173.785C174.739 15.8 175.311 16.2593 175.501 17.178L179.037 34H175.995L175.111 29.502ZM169.183 26.954H174.721L173.291 19.57H173.265L169.183 26.954ZM186.745 34.208C184.977 34.208 183.573 33.7313 182.533 32.778C181.511 31.8073 180.999 30.4987 180.999 28.852C180.999 28.4533 181.043 27.968 181.129 27.396L182.013 22.404C182.377 20.2547 183.209 18.582 184.509 17.386C185.809 16.19 187.439 15.592 189.397 15.592H192.127C193.878 15.592 195.256 16.0513 196.261 16.97C197.267 17.8713 197.769 19.0933 197.769 20.636C197.769 21 197.726 21.442 197.639 21.962H194.649C194.701 21.65 194.727 21.3553 194.727 21.078C194.727 20.2113 194.485 19.5267 193.999 19.024C193.514 18.5213 192.855 18.27 192.023 18.27H189.293C188.184 18.27 187.248 18.6513 186.485 19.414C185.74 20.1593 185.255 21.1907 185.029 22.508L184.171 27.292C184.102 27.6387 184.067 28.0027 184.067 28.384C184.067 29.3547 184.31 30.126 184.795 30.698C185.298 31.2527 185.983 31.53 186.849 31.53H189.631C190.671 31.53 191.555 31.166 192.283 30.438C193.029 29.6927 193.514 28.6873 193.739 27.422H196.729C196.348 29.5367 195.516 31.2007 194.233 32.414C192.951 33.61 191.382 34.208 189.527 34.208H186.745ZM200.362 34C199.773 34 199.305 33.844 198.958 33.532C198.629 33.22 198.464 32.7953 198.464 32.258C198.464 32.154 198.481 31.998 198.516 31.79L201.35 15.8H214.662L214.194 18.426H203.924L203.04 23.366H212.53L212.062 26.018H202.572L201.636 31.374H211.906L211.438 34H200.362Z" fill="white"/>
</svg>
