<svg width="245" height="50" viewBox="0 0 245 50" fill="none" xmlns="http://www.w3.org/2000/svg">
<path d="M9.73675 32.168C8.05675 32.168 6.67275 31.792 5.58475 31.04C4.51275 30.272 3.97675 29.2 3.97675 27.824C3.97675 27.68 3.99275 27.464 4.02475 27.176H7.45675C7.39275 27.848 7.56875 28.4 7.98475 28.832C8.41675 29.264 9.04075 29.48 9.85675 29.48C10.6728 29.48 11.3128 29.312 11.7768 28.976C12.2568 28.624 12.4968 28.128 12.4968 27.488C12.4968 26.896 12.2488 26.424 11.7528 26.072C11.2728 25.72 10.5128 25.328 9.47275 24.896C8.51275 24.496 7.72875 24.128 7.12075 23.792C6.52875 23.456 6.01675 22.992 5.58475 22.4C5.16875 21.792 4.96075 21.032 4.96075 20.12C4.96075 19.08 5.22475 18.176 5.75275 17.408C6.29675 16.64 7.03275 16.048 7.96075 15.632C8.90475 15.216 9.97675 15.008 11.1768 15.008C12.3608 15.008 13.3848 15.208 14.2488 15.608C15.1288 15.992 15.7848 16.544 16.2168 17.264C16.6648 17.984 16.8568 18.824 16.7928 19.784H13.2168L13.2408 19.52C13.2408 18.992 13.0408 18.56 12.6408 18.224C12.2568 17.888 11.7128 17.72 11.0088 17.72C10.2568 17.72 9.64875 17.896 9.18475 18.248C8.72075 18.6 8.48875 19.08 8.48875 19.688C8.48875 20.088 8.61675 20.44 8.87275 20.744C9.14475 21.032 9.47275 21.288 9.85675 21.512C10.2408 21.72 10.7928 21.992 11.5128 22.328C12.4568 22.744 13.2328 23.136 13.8408 23.504C14.4488 23.872 14.9688 24.36 15.4008 24.968C15.8328 25.576 16.0488 26.32 16.0488 27.2C16.0488 28.16 15.7848 29.016 15.2568 29.768C14.7448 30.52 14.0088 31.112 13.0488 31.544C12.1048 31.96 11.0008 32.168 9.73675 32.168ZM38.8332 18.704L32.5932 32H28.9452L28.1772 22.76L24.0972 32H20.4492L18.9132 18.704H22.2972L22.8732 28.832L27.2172 18.704H30.7692L31.4892 28.808L35.5932 18.704H38.8332ZM42.6192 17.12C42.0912 17.12 41.6672 16.968 41.3472 16.664C41.0272 16.36 40.8672 15.976 40.8672 15.512C40.8672 14.872 41.1072 14.328 41.5872 13.88C42.0832 13.416 42.6592 13.184 43.3152 13.184C43.8272 13.184 44.2432 13.336 44.5632 13.64C44.8832 13.944 45.0432 14.328 45.0432 14.792C45.0432 15.432 44.8032 15.984 44.3232 16.448C43.8432 16.896 43.2752 17.12 42.6192 17.12ZM44.0112 18.704L41.6592 32H38.2752L40.6272 18.704H44.0112ZM50.1629 32.216C49.1869 32.216 48.2989 32.056 47.4989 31.736C46.7149 31.4 46.0909 30.944 45.6269 30.368C45.1789 29.776 44.9549 29.104 44.9549 28.352C44.9549 28.24 44.9709 28.056 45.0029 27.8H48.2669C48.2189 28.36 48.3869 28.816 48.7709 29.168C49.1549 29.504 49.6989 29.672 50.4029 29.672C51.0429 29.672 51.5709 29.56 51.9869 29.336C52.4189 29.096 52.6349 28.752 52.6349 28.304C52.6349 27.904 52.4349 27.584 52.0349 27.344C51.6509 27.104 51.0349 26.832 50.1869 26.528C49.3389 26.224 48.6349 25.928 48.0749 25.64C47.5149 25.352 47.0349 24.952 46.6349 24.44C46.2349 23.928 46.0349 23.28 46.0349 22.496C46.0349 21.712 46.2589 21.016 46.7069 20.408C47.1709 19.8 47.8109 19.328 48.6269 18.992C49.4429 18.656 50.3789 18.488 51.4349 18.488C52.4429 18.488 53.3309 18.656 54.0989 18.992C54.8669 19.328 55.4589 19.8 55.8749 20.408C56.3069 21 56.5229 21.68 56.5229 22.448C56.5229 22.64 56.5149 22.784 56.4989 22.88H53.3789C53.4269 22.32 53.2669 21.872 52.8989 21.536C52.5309 21.2 51.9949 21.032 51.2909 21.032C50.7149 21.032 50.2429 21.16 49.8749 21.416C49.5069 21.656 49.3229 21.984 49.3229 22.4C49.3229 22.816 49.5309 23.16 49.9469 23.432C50.3629 23.688 51.0029 23.976 51.8669 24.296C52.7309 24.632 53.4189 24.944 53.9309 25.232C54.4589 25.504 54.9149 25.888 55.2989 26.384C55.6829 26.864 55.8749 27.472 55.8749 28.208C55.8749 29.024 55.6269 29.736 55.1309 30.344C54.6349 30.952 53.9549 31.416 53.0909 31.736C52.2269 32.056 51.2509 32.216 50.1629 32.216ZM63.241 32.216C62.265 32.216 61.377 32.056 60.577 31.736C59.793 31.4 59.169 30.944 58.705 30.368C58.257 29.776 58.033 29.104 58.033 28.352C58.033 28.24 58.049 28.056 58.081 27.8H61.345C61.297 28.36 61.465 28.816 61.849 29.168C62.233 29.504 62.777 29.672 63.481 29.672C64.121 29.672 64.649 29.56 65.065 29.336C65.497 29.096 65.713 28.752 65.713 28.304C65.713 27.904 65.513 27.584 65.113 27.344C64.729 27.104 64.113 26.832 63.265 26.528C62.417 26.224 61.713 25.928 61.153 25.64C60.593 25.352 60.113 24.952 59.713 24.44C59.313 23.928 59.113 23.28 59.113 22.496C59.113 21.712 59.337 21.016 59.785 20.408C60.249 19.8 60.889 19.328 61.705 18.992C62.521 18.656 63.457 18.488 64.513 18.488C65.521 18.488 66.409 18.656 67.177 18.992C67.945 19.328 68.537 19.8 68.953 20.408C69.385 21 69.601 21.68 69.601 22.448C69.601 22.64 69.593 22.784 69.577 22.88H66.457C66.505 22.32 66.345 21.872 65.977 21.536C65.609 21.2 65.073 21.032 64.369 21.032C63.793 21.032 63.321 21.16 62.953 21.416C62.585 21.656 62.401 21.984 62.401 22.4C62.401 22.816 62.609 23.16 63.025 23.432C63.441 23.688 64.081 23.976 64.945 24.296C65.809 24.632 66.497 24.944 67.009 25.232C67.537 25.504 67.993 25.888 68.377 26.384C68.761 26.864 68.953 27.472 68.953 28.208C68.953 29.024 68.705 29.736 68.209 30.344C67.713 30.952 67.033 31.416 66.169 31.736C65.305 32.056 64.329 32.216 63.241 32.216ZM71.4471 25.304C71.6871 23.96 72.1591 22.768 72.8631 21.728C73.5831 20.688 74.4551 19.888 75.4791 19.328C76.5031 18.768 77.5831 18.488 78.7191 18.488C79.7111 18.488 80.5431 18.688 81.2151 19.088C81.9031 19.488 82.4071 19.992 82.7271 20.6L83.0631 18.704H86.4471L84.0951 32H80.7111L81.0711 30.056C80.5431 30.68 79.8551 31.2 79.0071 31.616C78.1751 32.016 77.2631 32.216 76.2711 32.216C75.2951 32.216 74.4311 32 73.6791 31.568C72.9271 31.12 72.3431 30.496 71.9271 29.696C71.5111 28.88 71.3031 27.936 71.3031 26.864C71.3031 26.368 71.3511 25.848 71.4471 25.304ZM81.8871 25.352C81.9511 24.936 81.9831 24.632 81.9831 24.44C81.9831 23.496 81.7031 22.76 81.1431 22.232C80.5991 21.704 79.9111 21.44 79.0791 21.44C78.4551 21.44 77.8471 21.592 77.2551 21.896C76.6791 22.2 76.1751 22.648 75.7431 23.24C75.3111 23.816 75.0231 24.504 74.8791 25.304C74.8311 25.608 74.8071 25.896 74.8071 26.168C74.8071 27.128 75.0791 27.888 75.6231 28.448C76.1671 28.992 76.8551 29.264 77.6871 29.264C78.3111 29.264 78.9191 29.112 79.5111 28.808C80.1031 28.488 80.6071 28.032 81.0231 27.44C81.4551 26.848 81.7431 26.152 81.8871 25.352ZM91.7208 17.12C91.1928 17.12 90.7688 16.968 90.4488 16.664C90.1288 16.36 89.9688 15.976 89.9688 15.512C89.9688 14.872 90.2088 14.328 90.6888 13.88C91.1848 13.416 91.7608 13.184 92.4168 13.184C92.9288 13.184 93.3448 13.336 93.6648 13.64C93.9848 13.944 94.1448 14.328 94.1448 14.792C94.1448 15.432 93.9048 15.984 93.4248 16.448C92.9448 16.896 92.3768 17.12 91.7208 17.12ZM93.1128 18.704L90.7608 32H87.3768L89.7288 18.704H93.1128ZM99.2644 32.216C98.2884 32.216 97.4004 32.056 96.6004 31.736C95.8164 31.4 95.1924 30.944 94.7284 30.368C94.2804 29.776 94.0564 29.104 94.0564 28.352C94.0564 28.24 94.0724 28.056 94.1044 27.8H97.3684C97.3204 28.36 97.4884 28.816 97.8724 29.168C98.2564 29.504 98.8004 29.672 99.5044 29.672C100.144 29.672 100.672 29.56 101.088 29.336C101.52 29.096 101.736 28.752 101.736 28.304C101.736 27.904 101.536 27.584 101.136 27.344C100.752 27.104 100.136 26.832 99.2884 26.528C98.4404 26.224 97.7364 25.928 97.1764 25.64C96.6164 25.352 96.1364 24.952 95.7364 24.44C95.3364 23.928 95.1364 23.28 95.1364 22.496C95.1364 21.712 95.3604 21.016 95.8084 20.408C96.2724 19.8 96.9124 19.328 97.7284 18.992C98.5444 18.656 99.4804 18.488 100.536 18.488C101.544 18.488 102.432 18.656 103.2 18.992C103.968 19.328 104.56 19.8 104.976 20.408C105.408 21 105.624 21.68 105.624 22.448C105.624 22.64 105.616 22.784 105.6 22.88H102.48C102.528 22.32 102.368 21.872 102 21.536C101.632 21.2 101.096 21.032 100.392 21.032C99.8164 21.032 99.3444 21.16 98.9764 21.416C98.6084 21.656 98.4244 21.984 98.4244 22.4C98.4244 22.816 98.6324 23.16 99.0484 23.432C99.4644 23.688 100.104 23.976 100.968 24.296C101.832 24.632 102.52 24.944 103.032 25.232C103.56 25.504 104.016 25.888 104.4 26.384C104.784 26.864 104.976 27.472 104.976 28.208C104.976 29.024 104.728 29.736 104.232 30.344C103.736 30.952 103.056 31.416 102.192 31.736C101.328 32.056 100.352 32.216 99.2644 32.216ZM107.471 25.304C107.711 23.96 108.183 22.768 108.887 21.728C109.607 20.688 110.479 19.888 111.503 19.328C112.527 18.768 113.607 18.488 114.743 18.488C115.735 18.488 116.567 18.688 117.239 19.088C117.927 19.488 118.431 19.992 118.751 20.6L119.087 18.704H122.471L120.119 32H116.735L117.095 30.056C116.567 30.68 115.879 31.2 115.031 31.616C114.199 32.016 113.287 32.216 112.295 32.216C111.319 32.216 110.455 32 109.703 31.568C108.951 31.12 108.367 30.496 107.951 29.696C107.535 28.88 107.327 27.936 107.327 26.864C107.327 26.368 107.375 25.848 107.471 25.304ZM117.911 25.352C117.975 24.936 118.007 24.632 118.007 24.44C118.007 23.496 117.727 22.76 117.167 22.232C116.623 21.704 115.935 21.44 115.103 21.44C114.479 21.44 113.871 21.592 113.279 21.896C112.703 22.2 112.199 22.648 111.767 23.24C111.335 23.816 111.047 24.504 110.903 25.304C110.855 25.608 110.831 25.896 110.831 26.168C110.831 27.128 111.103 27.888 111.647 28.448C112.191 28.992 112.879 29.264 113.711 29.264C114.335 29.264 114.943 29.112 115.535 28.808C116.127 28.488 116.631 28.032 117.047 27.44C117.479 26.848 117.767 26.152 117.911 25.352ZM126.256 18.032C126.544 16.4 127.216 15.2 128.272 14.432C129.328 13.664 130.784 13.304 132.64 13.352L132.16 16.184C131.36 16.168 130.768 16.304 130.384 16.592C130 16.88 129.744 17.4 129.616 18.152L129.52 18.704H131.848L131.368 21.464H129.04L127.168 32H123.784L125.656 21.464H124.12L124.6 18.704H126.136L126.256 18.032ZM139.882 18.488C141.578 18.488 142.922 18.96 143.914 19.904C144.906 20.832 145.402 22.088 145.402 23.672C145.402 24.184 145.362 24.64 145.282 25.04C145.186 25.52 145.082 25.936 144.97 26.288H135.25C135.234 26.4 135.226 26.56 135.226 26.768C135.226 27.6 135.466 28.256 135.946 28.736C136.442 29.2 137.09 29.432 137.89 29.432C138.562 29.432 139.138 29.288 139.618 29C140.114 28.696 140.514 28.304 140.818 27.824H144.442C143.85 29.104 142.93 30.16 141.682 30.992C140.45 31.808 139.05 32.216 137.482 32.216C135.786 32.216 134.426 31.736 133.402 30.776C132.378 29.816 131.866 28.512 131.866 26.864C131.866 26.384 131.914 25.88 132.01 25.352C132.25 23.976 132.738 22.768 133.474 21.728C134.226 20.688 135.154 19.888 136.258 19.328C137.362 18.768 138.57 18.488 139.882 18.488ZM141.946 24.248C141.978 23.992 141.994 23.808 141.994 23.696C141.994 22.928 141.746 22.328 141.25 21.896C140.754 21.464 140.106 21.248 139.306 21.248C138.458 21.248 137.698 21.52 137.026 22.064C136.354 22.592 135.882 23.32 135.61 24.248H141.946ZM151.142 27.896C151.126 27.992 151.118 28.12 151.118 28.28C151.118 28.6 151.206 28.832 151.382 28.976C151.574 29.104 151.886 29.168 152.318 29.168H153.902L153.398 32H151.262C148.862 32 147.662 31 147.662 29C147.662 28.616 147.694 28.24 147.758 27.872L148.886 21.464H147.302L147.782 18.704H149.39L149.966 15.416H153.35L152.774 18.704H155.726L155.246 21.464H152.27L151.142 27.896ZM160.375 18.704L162.151 27.992L167.311 18.704H170.887L159.199 38.288H155.623L159.655 31.664L156.607 18.704H160.375ZM170.658 25.352C170.898 23.976 171.386 22.776 172.122 21.752C172.858 20.712 173.77 19.912 174.858 19.352C175.962 18.776 177.154 18.488 178.434 18.488C180.082 18.488 181.37 18.896 182.298 19.712C183.242 20.528 183.77 21.688 183.882 23.192H180.258C180.162 22.616 179.914 22.168 179.514 21.848C179.114 21.512 178.578 21.344 177.906 21.344C176.946 21.344 176.122 21.696 175.434 22.4C174.762 23.088 174.314 24.072 174.09 25.352C174.01 25.8 173.97 26.184 173.97 26.504C173.97 27.416 174.194 28.12 174.642 28.616C175.09 29.096 175.714 29.336 176.514 29.336C177.858 29.336 178.85 28.728 179.49 27.512H183.114C182.49 28.952 181.554 30.096 180.306 30.944C179.074 31.792 177.65 32.216 176.034 32.216C174.354 32.216 173.01 31.744 172.002 30.8C171.01 29.84 170.514 28.544 170.514 26.912C170.514 26.416 170.562 25.896 170.658 25.352ZM185.096 25.304C185.336 23.96 185.808 22.768 186.512 21.728C187.232 20.688 188.104 19.888 189.128 19.328C190.152 18.768 191.232 18.488 192.368 18.488C193.36 18.488 194.192 18.688 194.864 19.088C195.552 19.488 196.056 19.992 196.376 20.6L196.712 18.704H200.096L197.744 32H194.36L194.72 30.056C194.192 30.68 193.504 31.2 192.656 31.616C191.824 32.016 190.912 32.216 189.92 32.216C188.944 32.216 188.08 32 187.328 31.568C186.576 31.12 185.992 30.496 185.576 29.696C185.16 28.88 184.952 27.936 184.952 26.864C184.952 26.368 185 25.848 185.096 25.304ZM195.536 25.352C195.6 24.936 195.632 24.632 195.632 24.44C195.632 23.496 195.352 22.76 194.792 22.232C194.248 21.704 193.56 21.44 192.728 21.44C192.104 21.44 191.496 21.592 190.904 21.896C190.328 22.2 189.824 22.648 189.392 23.24C188.96 23.816 188.672 24.504 188.528 25.304C188.48 25.608 188.456 25.896 188.456 26.168C188.456 27.128 188.728 27.888 189.272 28.448C189.816 28.992 190.504 29.264 191.336 29.264C191.96 29.264 192.568 29.112 193.16 28.808C193.752 28.488 194.256 28.032 194.672 27.44C195.104 26.848 195.392 26.152 195.536 25.352ZM219.937 18.512C221.345 18.512 222.457 18.888 223.273 19.64C224.089 20.392 224.497 21.456 224.497 22.832C224.497 23.344 224.457 23.8 224.377 24.2L222.985 32H219.649L220.945 24.656C220.993 24.368 221.017 24.088 221.017 23.816C221.017 23.048 220.801 22.464 220.369 22.064C219.953 21.648 219.353 21.44 218.569 21.44C217.641 21.44 216.857 21.72 216.217 22.28C215.577 22.824 215.177 23.616 215.017 24.656V24.632L213.697 32H210.361L211.657 24.656C211.705 24.368 211.729 24.096 211.729 23.84C211.729 23.056 211.513 22.464 211.081 22.064C210.649 21.648 210.041 21.44 209.257 21.44C208.377 21.44 207.617 21.704 206.977 22.232C206.353 22.744 205.945 23.48 205.753 24.44L204.409 32H201.025L203.377 18.704H206.761L206.473 20.288C207.001 19.744 207.633 19.312 208.369 18.992C209.105 18.672 209.881 18.512 210.697 18.512C211.737 18.512 212.625 18.736 213.361 19.184C214.097 19.616 214.617 20.24 214.921 21.056C215.481 20.288 216.209 19.672 217.105 19.208C218.017 18.744 218.961 18.512 219.937 18.512ZM231.574 20.624C232.118 20.016 232.798 19.512 233.614 19.112C234.446 18.696 235.35 18.488 236.326 18.488C237.318 18.488 238.19 18.704 238.942 19.136C239.71 19.552 240.302 20.16 240.718 20.96C241.134 21.76 241.342 22.696 241.342 23.768C241.342 24.264 241.294 24.776 241.198 25.304C240.958 26.664 240.478 27.872 239.758 28.928C239.038 29.968 238.166 30.776 237.142 31.352C236.118 31.928 235.046 32.216 233.926 32.216C232.95 32.216 232.118 32.016 231.43 31.616C230.758 31.216 230.246 30.712 229.894 30.104L228.454 38.336H225.07L228.526 18.704H231.91L231.574 20.624ZM237.766 25.304C237.814 24.984 237.838 24.696 237.838 24.44C237.838 23.496 237.566 22.76 237.022 22.232C236.478 21.704 235.782 21.44 234.934 21.44C234.326 21.44 233.726 21.6 233.134 21.92C232.542 22.224 232.03 22.672 231.598 23.264C231.166 23.856 230.878 24.552 230.734 25.352C230.67 25.768 230.638 26.072 230.638 26.264C230.638 27.208 230.91 27.944 231.454 28.472C232.014 29 232.71 29.264 233.542 29.264C234.166 29.264 234.774 29.104 235.366 28.784C235.958 28.464 236.47 28.008 236.902 27.416C237.334 26.824 237.622 26.12 237.766 25.304Z" fill="white"/>
</svg>
