<svg width="211" height="612" viewBox="0 0 211 612" fill="none" xmlns="http://www.w3.org/2000/svg">
<g opacity="0.3" clip-path="url(#clip0_645_400)">
<mask id="path-1-inside-1_645_400" fill="white">
<path d="M70.0918 713.346L70.0917 -528.798L-0.000623269 -528.798L-0.000572205 713.346L70.0918 713.346Z"/>
</mask>
<path d="M70.0918 713.346L70.0917 -528.798L-0.000623269 -528.798L-0.000572205 713.346L70.0918 713.346Z" fill="url(#paint0_radial_645_400)"/>
<path d="M0.886622 -528.798L0.886673 713.346L-0.887817 713.346L-0.887868 -528.798L0.886622 -528.798Z" fill="url(#paint1_radial_645_400)" mask="url(#path-1-inside-1_645_400)"/>
<mask id="path-3-inside-2_645_400" fill="white">
<path d="M140.186 597.116L140.186 -528.798L70.0931 -528.798L70.0932 597.116L140.186 597.116Z"/>
</mask>
<path d="M140.186 597.116L140.186 -528.798L70.0931 -528.798L70.0932 597.116L140.186 597.116Z" fill="url(#paint2_radial_645_400)"/>
<path d="M70.9804 -528.798L70.9804 597.116L69.2059 597.116L69.2059 -528.798L70.9804 -528.798Z" fill="url(#paint3_radial_645_400)" mask="url(#path-3-inside-2_645_400)"/>
<mask id="path-5-inside-3_645_400" fill="white">
<path d="M210.277 713.346L210.277 -528.798L140.185 -528.798L140.185 713.346L210.277 713.346Z"/>
</mask>
<path d="M210.277 713.346L210.277 -528.798L140.185 -528.798L140.185 713.346L210.277 713.346Z" fill="url(#paint4_radial_645_400)"/>
<path d="M141.072 -528.798L141.072 713.346L139.298 713.346L139.298 -528.798L141.072 -528.798Z" fill="url(#paint5_radial_645_400)" mask="url(#path-5-inside-3_645_400)"/>
</g>
<defs>
<radialGradient id="paint0_radial_645_400" cx="0" cy="0" r="1" gradientUnits="userSpaceOnUse" gradientTransform="translate(-0.000614472 92.2736) rotate(180) scale(61.6636 338.817)">
<stop stop-color="white" stop-opacity="0.2"/>
<stop offset="1" stop-color="white" stop-opacity="0"/>
</radialGradient>
<radialGradient id="paint1_radial_645_400" cx="0" cy="0" r="1" gradientUnits="userSpaceOnUse" gradientTransform="translate(-0.000603476 92.2737) scale(420.554 231.206)">
<stop stop-color="white" stop-opacity="0.6"/>
<stop offset="1" stop-color="white" stop-opacity="0"/>
</radialGradient>
<radialGradient id="paint2_radial_645_400" cx="0" cy="0" r="1" gradientUnits="userSpaceOnUse" gradientTransform="translate(70.0931 34.159) rotate(180) scale(61.6636 307.113)">
<stop stop-color="white" stop-opacity="0.2"/>
<stop offset="1" stop-color="white" stop-opacity="0"/>
</radialGradient>
<radialGradient id="paint3_radial_645_400" cx="0" cy="0" r="1" gradientUnits="userSpaceOnUse" gradientTransform="translate(70.0931 34.159) scale(420.554 209.572)">
<stop stop-color="white" stop-opacity="0.6"/>
<stop offset="1" stop-color="white" stop-opacity="0"/>
</radialGradient>
<radialGradient id="paint4_radial_645_400" cx="0" cy="0" r="1" gradientUnits="userSpaceOnUse" gradientTransform="translate(140.185 92.2736) rotate(180) scale(61.6636 338.817)">
<stop stop-color="white" stop-opacity="0.2"/>
<stop offset="1" stop-color="white" stop-opacity="0"/>
</radialGradient>
<radialGradient id="paint5_radial_645_400" cx="0" cy="0" r="1" gradientUnits="userSpaceOnUse" gradientTransform="translate(140.185 92.2737) scale(420.554 231.206)">
<stop stop-color="white" stop-opacity="0.6"/>
<stop offset="1" stop-color="white" stop-opacity="0"/>
</radialGradient>
<clipPath id="clip0_645_400">
<rect width="210.277" height="611.312" fill="white" transform="matrix(1 0 0 -1 0 611.312)"/>
</clipPath>
</defs>
</svg>
