<svg width="168" height="151" viewBox="0 0 168 151" fill="none" xmlns="http://www.w3.org/2000/svg">
<g opacity="0.4">
<g clip-path="url(#clip0_645_151)">
<g opacity="0.6">
<path d="M179.982 18.3279V19.312H-1.29118V18.3279H179.982Z" fill="url(#paint0_linear_645_151)"/>
<path d="M17.9024 0.614746H18.9688V149.211H17.9024V0.614746Z" fill="url(#paint1_linear_645_151)"/>
<path d="M179.982 37.0261V38.0102H-1.29118V37.0261H179.982Z" fill="url(#paint2_linear_645_151)"/>
<path d="M58.4219 0.614746H59.4883V149.211H58.4219V0.614746Z" fill="url(#paint3_linear_645_151)"/>
<path d="M179.982 74.4209V75.405H-1.29118V74.4209H179.982Z" fill="url(#paint4_linear_645_151)"/>
<path d="M98.9434 0.614746H100.01V149.211H98.9434V0.614746Z" fill="url(#paint5_linear_645_151)"/>
<path d="M179.982 111.816V112.8H-1.29118V111.816L179.982 111.816Z" fill="url(#paint6_linear_645_151)"/>
<path d="M139.463 0.614746H140.529V149.211H139.463V0.614746Z" fill="url(#paint7_linear_645_151)"/>
<path d="M179.982 149.21V150.194H-1.29118V149.21H179.982Z" fill="url(#paint8_linear_645_151)"/>
<path d="M38.1622 0.614746H39.2285V149.211H38.1622V0.614746Z" fill="url(#paint9_linear_645_151)"/>
<path d="M179.982 55.7227V56.7068H-1.29118V55.7227H179.982Z" fill="url(#paint10_linear_645_151)"/>
<path d="M78.6837 0.614746H79.75V149.211H78.6837V0.614746Z" fill="url(#paint11_linear_645_151)"/>
<path d="M179.982 93.1174V94.1015H-1.29118V93.1174H179.982Z" fill="url(#paint12_linear_645_151)"/>
<path d="M119.203 0.614746H120.27V149.211H119.203V0.614746Z" fill="url(#paint13_linear_645_151)"/>
<path d="M179.982 130.512V131.496H-1.29118V130.512H179.982Z" fill="url(#paint14_linear_645_151)"/>
<path d="M159.721 0.614746H160.787V149.211H159.721V0.614746Z" fill="url(#paint15_linear_645_151)"/>
</g>
</g>
</g>
<defs>
<linearGradient id="paint0_linear_645_151" x1="179.982" y1="0.614433" x2="81.962" y2="107.695" gradientUnits="userSpaceOnUse">
<stop stop-color="#D9D9D9"/>
<stop offset="1" stop-color="#D9D9D9" stop-opacity="0"/>
</linearGradient>
<linearGradient id="paint1_linear_645_151" x1="179.982" y1="0.614745" x2="81.9613" y2="107.695" gradientUnits="userSpaceOnUse">
<stop stop-color="#D9D9D9"/>
<stop offset="1" stop-color="#D9D9D9" stop-opacity="0"/>
</linearGradient>
<linearGradient id="paint2_linear_645_151" x1="179.982" y1="0.615329" x2="81.9623" y2="107.696" gradientUnits="userSpaceOnUse">
<stop stop-color="#D9D9D9"/>
<stop offset="1" stop-color="#D9D9D9" stop-opacity="0"/>
</linearGradient>
<linearGradient id="paint3_linear_645_151" x1="179.981" y1="0.614744" x2="81.9611" y2="107.695" gradientUnits="userSpaceOnUse">
<stop stop-color="#D9D9D9"/>
<stop offset="1" stop-color="#D9D9D9" stop-opacity="0"/>
</linearGradient>
<linearGradient id="paint4_linear_645_151" x1="179.982" y1="0.615207" x2="81.9623" y2="107.696" gradientUnits="userSpaceOnUse">
<stop stop-color="#D9D9D9"/>
<stop offset="1" stop-color="#D9D9D9" stop-opacity="0"/>
</linearGradient>
<linearGradient id="paint5_linear_645_151" x1="179.983" y1="0.614746" x2="81.9628" y2="107.695" gradientUnits="userSpaceOnUse">
<stop stop-color="#D9D9D9"/>
<stop offset="1" stop-color="#D9D9D9" stop-opacity="0"/>
</linearGradient>
<linearGradient id="paint6_linear_645_151" x1="179.982" y1="0.614531" x2="81.9617" y2="107.695" gradientUnits="userSpaceOnUse">
<stop stop-color="#D9D9D9"/>
<stop offset="1" stop-color="#D9D9D9" stop-opacity="0"/>
</linearGradient>
<linearGradient id="paint7_linear_645_151" x1="179.983" y1="0.614748" x2="81.9627" y2="107.695" gradientUnits="userSpaceOnUse">
<stop stop-color="#D9D9D9"/>
<stop offset="1" stop-color="#D9D9D9" stop-opacity="0"/>
</linearGradient>
<linearGradient id="paint8_linear_645_151" x1="179.982" y1="0.613459" x2="81.9616" y2="107.694" gradientUnits="userSpaceOnUse">
<stop stop-color="#D9D9D9"/>
<stop offset="1" stop-color="#D9D9D9" stop-opacity="0"/>
</linearGradient>
<linearGradient id="paint9_linear_645_151" x1="179.981" y1="0.614746" x2="81.9607" y2="107.695" gradientUnits="userSpaceOnUse">
<stop stop-color="#D9D9D9"/>
<stop offset="1" stop-color="#D9D9D9" stop-opacity="0"/>
</linearGradient>
<linearGradient id="paint10_linear_645_151" x1="179.982" y1="0.614353" x2="81.9623" y2="107.695" gradientUnits="userSpaceOnUse">
<stop stop-color="#D9D9D9"/>
<stop offset="1" stop-color="#D9D9D9" stop-opacity="0"/>
</linearGradient>
<linearGradient id="paint11_linear_645_151" x1="179.983" y1="0.614746" x2="81.963" y2="107.695" gradientUnits="userSpaceOnUse">
<stop stop-color="#D9D9D9"/>
<stop offset="1" stop-color="#D9D9D9" stop-opacity="0"/>
</linearGradient>
<linearGradient id="paint12_linear_645_151" x1="179.982" y1="0.613767" x2="81.9617" y2="107.694" gradientUnits="userSpaceOnUse">
<stop stop-color="#D9D9D9"/>
<stop offset="1" stop-color="#D9D9D9" stop-opacity="0"/>
</linearGradient>
<linearGradient id="paint13_linear_645_151" x1="179.983" y1="0.614747" x2="81.9629" y2="107.696" gradientUnits="userSpaceOnUse">
<stop stop-color="#D9D9D9"/>
<stop offset="1" stop-color="#D9D9D9" stop-opacity="0"/>
</linearGradient>
<linearGradient id="paint14_linear_645_151" x1="179.982" y1="0.614714" x2="81.9626" y2="107.695" gradientUnits="userSpaceOnUse">
<stop stop-color="#D9D9D9"/>
<stop offset="1" stop-color="#D9D9D9" stop-opacity="0"/>
</linearGradient>
<linearGradient id="paint15_linear_645_151" x1="179.981" y1="0.614746" x2="81.9604" y2="107.695" gradientUnits="userSpaceOnUse">
<stop stop-color="#D9D9D9"/>
<stop offset="1" stop-color="#D9D9D9" stop-opacity="0"/>
</linearGradient>
<clipPath id="clip0_645_151">
<path d="M168 32.6147C168 14.9416 153.673 0.614746 136 0.614746H0.247238V150.841H168V32.6147Z" fill="white"/>
</clipPath>
</defs>
</svg>
