<svg width="102" height="80" viewBox="0 0 102 80" fill="none" xmlns="http://www.w3.org/2000/svg">
<path d="M68.3156 42.1053H93.1157C92.3332 47.3165 90.4724 52.3072 87.6522 56.7586C84.832 61.21 81.1143 65.0243 76.7367 67.9579L69.1998 73.0105L73.8314 80L81.3683 74.9474C87.7124 70.7197 92.9149 64.9913 96.5139 58.2706C100.113 51.55 101.997 44.0448 102 36.4211V8.42105C102 6.18764 101.113 4.04572 99.5335 2.46647C97.9543 0.887215 95.8123 0 93.5789 0H68.3156C66.0822 0 63.9403 0.887215 62.361 2.46647C60.7818 4.04572 59.8945 6.18764 59.8945 8.42105V33.6842C59.8945 35.9176 60.7818 38.0595 62.361 39.6388C63.9403 41.218 66.0822 42.1053 68.3156 42.1053Z" fill="white" fill-opacity="0.1"/>
<path d="M9.36836 42.1053H34.1685C33.3859 47.3165 31.5251 52.3072 28.7049 56.7586C25.8847 61.21 22.1671 65.0243 17.7895 67.9579L10.2526 73.0105L14.8421 80L22.4211 74.9474C28.7652 70.7197 33.9676 64.9913 37.5667 58.2706C41.1658 51.55 43.0502 44.0448 43.0527 36.4211V8.42105C43.0527 6.18764 42.1655 4.04572 40.5863 2.46647C39.007 0.887215 36.8651 0 34.6316 0H9.36836C7.13494 0 4.99301 0.887215 3.41375 2.46647C1.83449 4.04572 0.947266 6.18764 0.947266 8.42105V33.6842C0.947266 35.9176 1.83449 38.0595 3.41375 39.6388C4.99301 41.218 7.13494 42.1053 9.36836 42.1053Z" fill="white" fill-opacity="0.1"/>
</svg>
