<svg width="211" height="612" viewBox="0 0 211 612" fill="none" xmlns="http://www.w3.org/2000/svg">
<g opacity="0.3" clip-path="url(#clip0_645_405)">
<mask id="path-1-inside-1_645_405" fill="white">
<path d="M140.908 713.346L140.908 -528.798L211.001 -528.798L211.001 713.346L140.908 713.346Z"/>
</mask>
<path d="M140.908 713.346L140.908 -528.798L211.001 -528.798L211.001 713.346L140.908 713.346Z" fill="url(#paint0_radial_645_405)"/>
<path d="M210.113 -528.798L210.113 713.346L211.888 713.346L211.888 -528.798L210.113 -528.798Z" fill="url(#paint1_radial_645_405)" mask="url(#path-1-inside-1_645_405)"/>
<mask id="path-3-inside-2_645_405" fill="white">
<path d="M70.8145 597.116L70.8145 -528.798L140.907 -528.798L140.907 597.116L70.8145 597.116Z"/>
</mask>
<path d="M70.8145 597.116L70.8145 -528.798L140.907 -528.798L140.907 597.116L70.8145 597.116Z" fill="url(#paint2_radial_645_405)"/>
<path d="M140.02 -528.798L140.02 597.116L141.794 597.116L141.794 -528.798L140.02 -528.798Z" fill="url(#paint3_radial_645_405)" mask="url(#path-3-inside-2_645_405)"/>
<mask id="path-5-inside-3_645_405" fill="white">
<path d="M0.722656 713.346L0.722707 -528.798L70.8151 -528.798L70.815 713.346L0.722656 713.346Z"/>
</mask>
<path d="M0.722656 713.346L0.722707 -528.798L70.8151 -528.798L70.815 713.346L0.722656 713.346Z" fill="url(#paint4_radial_645_405)"/>
<path d="M69.9278 -528.798L69.9278 713.346L71.7023 713.346L71.7023 -528.798L69.9278 -528.798Z" fill="url(#paint5_radial_645_405)" mask="url(#path-5-inside-3_645_405)"/>
</g>
<defs>
<radialGradient id="paint0_radial_645_405" cx="0" cy="0" r="1" gradientUnits="userSpaceOnUse" gradientTransform="translate(211.001 92.2736) scale(61.6636 338.817)">
<stop stop-color="white" stop-opacity="0.2"/>
<stop offset="1" stop-color="white" stop-opacity="0"/>
</radialGradient>
<radialGradient id="paint1_radial_645_405" cx="0" cy="0" r="1" gradientUnits="userSpaceOnUse" gradientTransform="translate(211.001 92.2737) rotate(-180) scale(420.554 231.206)">
<stop stop-color="white" stop-opacity="0.6"/>
<stop offset="1" stop-color="white" stop-opacity="0"/>
</radialGradient>
<radialGradient id="paint2_radial_645_405" cx="0" cy="0" r="1" gradientUnits="userSpaceOnUse" gradientTransform="translate(140.907 34.159) scale(61.6636 307.113)">
<stop stop-color="white" stop-opacity="0.2"/>
<stop offset="1" stop-color="white" stop-opacity="0"/>
</radialGradient>
<radialGradient id="paint3_radial_645_405" cx="0" cy="0" r="1" gradientUnits="userSpaceOnUse" gradientTransform="translate(140.907 34.159) rotate(-180) scale(420.554 209.572)">
<stop stop-color="white" stop-opacity="0.6"/>
<stop offset="1" stop-color="white" stop-opacity="0"/>
</radialGradient>
<radialGradient id="paint4_radial_645_405" cx="0" cy="0" r="1" gradientUnits="userSpaceOnUse" gradientTransform="translate(70.8151 92.2736) scale(61.6636 338.817)">
<stop stop-color="white" stop-opacity="0.2"/>
<stop offset="1" stop-color="white" stop-opacity="0"/>
</radialGradient>
<radialGradient id="paint5_radial_645_405" cx="0" cy="0" r="1" gradientUnits="userSpaceOnUse" gradientTransform="translate(70.8151 92.2737) rotate(-180) scale(420.554 231.206)">
<stop stop-color="white" stop-opacity="0.6"/>
<stop offset="1" stop-color="white" stop-opacity="0"/>
</radialGradient>
<clipPath id="clip0_645_405">
<rect width="210.277" height="611.312" fill="white" transform="matrix(-1 0 0 -1 211 611.312)"/>
</clipPath>
</defs>
</svg>
