<svg width="187" height="167" viewBox="0 0 187 167" fill="none" xmlns="http://www.w3.org/2000/svg">
<g opacity="0.4">
<g clip-path="url(#clip0_1161_3059)">
<g opacity="0.6">
<path d="M0.322266 19.6909V20.7849H201.314V19.6909H0.322266Z" fill="url(#paint0_linear_1161_3059)"/>
<path d="M180.033 0H178.851V165.188H180.033V0Z" fill="url(#paint1_linear_1161_3059)"/>
<path d="M0.322266 40.4771V41.571H201.314V40.4771H0.322266Z" fill="url(#paint2_linear_1161_3059)"/>
<path d="M135.104 0H133.922V165.188H135.104V0Z" fill="url(#paint3_linear_1161_3059)"/>
<path d="M0.322266 82.0471V83.1411H201.314V82.0471H0.322266Z" fill="url(#paint4_linear_1161_3059)"/>
<path d="M90.1765 0H88.9941V165.188H90.1765V0Z" fill="url(#paint5_linear_1161_3059)"/>
<path d="M0.322266 123.617V124.711H201.314V123.617L0.322266 123.617Z" fill="url(#paint6_linear_1161_3059)"/>
<path d="M45.2486 0H44.0664V165.188H45.2486V0Z" fill="url(#paint7_linear_1161_3059)"/>
<path d="M0.322266 165.187V166.281H201.314V165.187H0.322266Z" fill="url(#paint8_linear_1161_3059)"/>
<path d="M157.569 0H156.387V165.188H157.569V0Z" fill="url(#paint9_linear_1161_3059)"/>
<path d="M0.322266 61.261V62.355H201.314V61.261H0.322266Z" fill="url(#paint10_linear_1161_3059)"/>
<path d="M112.64 0H111.458V165.188H112.64V0Z" fill="url(#paint11_linear_1161_3059)"/>
<path d="M0.322266 102.831V103.925H201.314V102.831H0.322266Z" fill="url(#paint12_linear_1161_3059)"/>
<path d="M67.7126 0H66.5303V165.188H67.7126V0Z" fill="url(#paint13_linear_1161_3059)"/>
<path d="M0.322266 144.401V145.495H201.314V144.401H0.322266Z" fill="url(#paint14_linear_1161_3059)"/>
<path d="M22.7868 0H21.6045V165.188H22.7868V0Z" fill="url(#paint15_linear_1161_3059)"/>
</g>
</g>
</g>
<defs>
<linearGradient id="paint0_linear_1161_3059" x1="0.322265" y1="-0.000338054" x2="109.312" y2="118.755" gradientUnits="userSpaceOnUse">
<stop stop-color="#D9D9D9"/>
<stop offset="1" stop-color="#D9D9D9" stop-opacity="0"/>
</linearGradient>
<linearGradient id="paint1_linear_1161_3059" x1="0.323494" y1="-6.90855e-07" x2="109.313" y2="118.755" gradientUnits="userSpaceOnUse">
<stop stop-color="#D9D9D9"/>
<stop offset="1" stop-color="#D9D9D9" stop-opacity="0"/>
</linearGradient>
<linearGradient id="paint2_linear_1161_3059" x1="0.322266" y1="0.000783617" x2="109.312" y2="118.756" gradientUnits="userSpaceOnUse">
<stop stop-color="#D9D9D9"/>
<stop offset="1" stop-color="#D9D9D9" stop-opacity="0"/>
</linearGradient>
<linearGradient id="paint3_linear_1161_3059" x1="0.322093" y1="-1.78646e-06" x2="109.312" y2="118.755" gradientUnits="userSpaceOnUse">
<stop stop-color="#D9D9D9"/>
<stop offset="1" stop-color="#D9D9D9" stop-opacity="0"/>
</linearGradient>
<linearGradient id="paint4_linear_1161_3059" x1="0.322264" y1="0.000601594" x2="109.312" y2="118.755" gradientUnits="userSpaceOnUse">
<stop stop-color="#D9D9D9"/>
<stop offset="1" stop-color="#D9D9D9" stop-opacity="0"/>
</linearGradient>
<linearGradient id="paint5_linear_1161_3059" x1="0.321673" y1="3.79244e-07" x2="109.311" y2="118.755" gradientUnits="userSpaceOnUse">
<stop stop-color="#D9D9D9"/>
<stop offset="1" stop-color="#D9D9D9" stop-opacity="0"/>
</linearGradient>
<linearGradient id="paint6_linear_1161_3059" x1="0.322274" y1="-0.000203319" x2="109.312" y2="118.755" gradientUnits="userSpaceOnUse">
<stop stop-color="#D9D9D9"/>
<stop offset="1" stop-color="#D9D9D9" stop-opacity="0"/>
</linearGradient>
<linearGradient id="paint7_linear_1161_3059" x1="0.321105" y1="1.85688e-06" x2="109.311" y2="118.755" gradientUnits="userSpaceOnUse">
<stop stop-color="#D9D9D9"/>
<stop offset="1" stop-color="#D9D9D9" stop-opacity="0"/>
</linearGradient>
<linearGradient id="paint8_linear_1161_3059" x1="0.322271" y1="-0.00146034" x2="109.312" y2="118.753" gradientUnits="userSpaceOnUse">
<stop stop-color="#D9D9D9"/>
<stop offset="1" stop-color="#D9D9D9" stop-opacity="0"/>
</linearGradient>
<linearGradient id="paint9_linear_1161_3059" x1="0.323814" y1="-3.34076e-07" x2="109.313" y2="118.755" gradientUnits="userSpaceOnUse">
<stop stop-color="#D9D9D9"/>
<stop offset="1" stop-color="#D9D9D9" stop-opacity="0"/>
</linearGradient>
<linearGradient id="paint10_linear_1161_3059" x1="0.322263" y1="-0.000472872" x2="109.312" y2="118.754" gradientUnits="userSpaceOnUse">
<stop stop-color="#D9D9D9"/>
<stop offset="1" stop-color="#D9D9D9" stop-opacity="0"/>
</linearGradient>
<linearGradient id="paint11_linear_1161_3059" x1="0.321808" y1="-3.0863e-07" x2="109.311" y2="118.755" gradientUnits="userSpaceOnUse">
<stop stop-color="#D9D9D9"/>
<stop offset="1" stop-color="#D9D9D9" stop-opacity="0"/>
</linearGradient>
<linearGradient id="paint12_linear_1161_3059" x1="0.322269" y1="-0.00117686" x2="109.312" y2="118.754" gradientUnits="userSpaceOnUse">
<stop stop-color="#D9D9D9"/>
<stop offset="1" stop-color="#D9D9D9" stop-opacity="0"/>
</linearGradient>
<linearGradient id="paint13_linear_1161_3059" x1="0.321225" y1="6.59605e-07" x2="109.311" y2="118.755" gradientUnits="userSpaceOnUse">
<stop stop-color="#D9D9D9"/>
<stop offset="1" stop-color="#D9D9D9" stop-opacity="0"/>
</linearGradient>
<linearGradient id="paint14_linear_1161_3059" x1="0.322267" y1="-0.000161958" x2="109.311" y2="118.755" gradientUnits="userSpaceOnUse">
<stop stop-color="#D9D9D9"/>
<stop offset="1" stop-color="#D9D9D9" stop-opacity="0"/>
</linearGradient>
<linearGradient id="paint15_linear_1161_3059" x1="0.323046" y1="3.7933e-07" x2="109.313" y2="118.755" gradientUnits="userSpaceOnUse">
<stop stop-color="#D9D9D9"/>
<stop offset="1" stop-color="#D9D9D9" stop-opacity="0"/>
</linearGradient>
<clipPath id="clip0_1161_3059">
<path d="M0.0214844 32C0.0214844 14.3269 14.3484 0 32.0215 0H186.021V167H0.0214844V32Z" fill="white"/>
</clipPath>
</defs>
</svg>
